<svg xmlns="http://www.w3.org/2000/svg" xmlns:xlink="http://www.w3.org/1999/xlink" width="103" height="103" viewBox="0 0 103 103">
  <defs>
    <filter id="Trazado_982547" x="0" y="0" width="103" height="103" filterUnits="userSpaceOnUse">
      <feOffset dy="3" input="SourceAlpha"/>
      <feGaussianBlur stdDeviation="3" result="blur"/>
      <feFlood flood-opacity="0.161"/>
      <feComposite operator="in" in2="blur"/>
      <feComposite in="SourceGraphic"/>
    </filter>
  </defs>
  <g id="Grupo_1209439" data-name="Grupo 1209439" transform="translate(-821 -4803.497)">
    <g id="Grupo_1207683" data-name="Grupo 1207683" transform="translate(630 2033.284)">
      <g id="Grupo_1207604" data-name="Grupo 1207604" transform="translate(0 -893.287)">
        <g id="Grupo_1207313" data-name="Grupo 1207313" transform="translate(0 2919.5)">
          <g id="Grupo_1202212" data-name="Grupo 1202212" transform="translate(-80 -126.414)">
            <g id="Grupo_1174813" data-name="Grupo 1174813" transform="translate(280 876.414)">
              <g id="Grupo_1201680" data-name="Grupo 1201680">
                <g id="Grupo_1201330" data-name="Grupo 1201330">
                  <g id="Grupo_1172010" data-name="Grupo 1172010">
                    <g id="Grupo_1171046" data-name="Grupo 1171046">
                      <g id="Grupo_1148525" data-name="Grupo 1148525">
                        <g transform="matrix(1, 0, 0, 1, -9, -6)" filter="url(#Trazado_982547)">
                          <g id="Trazado_982547-2" data-name="Trazado 982547" transform="translate(9 6)" fill="#f2f7e5">
                            <path d="M 42.5 83.5 C 36.96437835693359 83.5 31.59512901306152 82.41617584228516 26.54141235351562 80.27863311767578 C 21.65934181213379 78.21369171142578 17.27447128295898 75.25723266601562 13.50862312316895 71.49137878417969 C 9.742764472961426 67.72553253173828 6.786305904388428 63.34066009521484 4.721364498138428 58.45858764648438 C 2.583823442459106 53.40486907958984 1.5 48.03562164306641 1.5 42.5 C 1.5 36.96437835693359 2.583823442459106 31.59512901306152 4.721364498138428 26.54141235351562 C 6.786305904388428 21.65934181213379 9.742764472961426 17.27448272705078 13.50862312316895 13.50862312316895 C 17.27447128295898 9.742776870727539 21.65934181213379 6.786305904388428 26.54141235351562 4.721364498138428 C 31.59512901306152 2.583823442459106 36.96437835693359 1.5 42.5 1.5 C 48.03562164306641 1.5 53.40486907958984 2.583823442459106 58.45858764648438 4.721364498138428 C 63.34066009521484 6.786305904388428 67.72553253173828 9.742776870727539 71.49137878417969 13.50862312316895 C 75.25723266601562 17.27448272705078 78.21369171142578 21.65934181213379 80.27863311767578 26.54141235351562 C 82.41617584228516 31.59512901306152 83.5 36.96437835693359 83.5 42.5 C 83.5 48.03562164306641 82.41617584228516 53.40486907958984 80.27863311767578 58.45858764648438 C 78.21369171142578 63.34066009521484 75.25723266601562 67.72553253173828 71.49137878417969 71.49137878417969 C 67.72553253173828 75.25723266601562 63.34066009521484 78.21369171142578 58.45858764648438 80.27863311767578 C 53.40486907958984 82.41617584228516 48.03562164306641 83.5 42.5 83.5 Z" stroke="none"/>
                            <path d="M 42.5 3 C 37.16621398925781 3 31.99356079101562 4.043960571289062 27.125732421875 6.102882385253906 C 22.42246627807617 8.092185974121094 18.19785308837891 10.94070434570312 14.56928253173828 14.56928253173828 C 10.94070434570312 18.19785308837891 8.092185974121094 22.42246627807617 6.102882385253906 27.125732421875 C 4.043960571289062 31.99356079101562 3 37.16621398925781 3 42.5 C 3 47.83378601074219 4.043960571289062 53.00643920898438 6.102882385253906 57.874267578125 C 8.092185974121094 62.57753372192383 10.94070434570312 66.80214691162109 14.56928253173828 70.43071746826172 C 18.19785308837891 74.05929565429688 22.42246627807617 76.90781402587891 27.125732421875 78.89711761474609 C 31.99356079101562 80.95603942871094 37.16621398925781 82 42.5 82 C 47.83378601074219 82 53.00643920898438 80.95603942871094 57.874267578125 78.89711761474609 C 62.57753372192383 76.90781402587891 66.80214691162109 74.05929565429688 70.43071746826172 70.43071746826172 C 74.05929565429688 66.80214691162109 76.90781402587891 62.57753372192383 78.89711761474609 57.874267578125 C 80.95603942871094 53.00643920898438 82 47.83378601074219 82 42.5 C 82 37.16621398925781 80.95603942871094 31.99356079101562 78.89711761474609 27.125732421875 C 76.90781402587891 22.42246627807617 74.05929565429688 18.19785308837891 70.43071746826172 14.56928253173828 C 66.80214691162109 10.94070434570312 62.57753372192383 8.092185974121094 57.874267578125 6.102882385253906 C 53.00643920898438 4.043960571289062 47.83378601074219 3 42.5 3 M 42.5 0 C 65.97210693359375 0 85 19.02789306640625 85 42.5 C 85 65.97210693359375 65.97210693359375 85 42.5 85 C 19.02789306640625 85 0 65.97210693359375 0 42.5 C 0 19.02789306640625 19.02789306640625 0 42.5 0 Z" stroke="none" fill="#1d7083"/>
                          </g>
                        </g>
                      </g>
                    </g>
                  </g>
                </g>
              </g>
            </g>
          </g>
        </g>
      </g>
    </g>
    <g id="translate_2519269" transform="translate(843.076 4823.479)">
      <g id="Grupo_1209437" data-name="Grupo 1209437" transform="translate(1.79 1.888)">
        <g id="Grupo_1209420" data-name="Grupo 1209420" transform="translate(12.429 7.102)">
          <path id="Trazado_1059103" data-name="Trazado 1059103" d="M43,27.392a1.256,1.256,0,0,1-2.14-.888V24.2h-7.1a1.781,1.781,0,0,1-1.776-1.776V10H16.888a.89.89,0,0,0-.888.888V49.062H43.521a.89.89,0,0,0,.888-.888V25.98Z" transform="translate(-16 -10)" fill="#f0d0b4"/>
        </g>
        <g id="Grupo_1209421" data-name="Grupo 1209421" transform="translate(26.633 28.409)">
          <path id="Trazado_1059104" data-name="Trazado 1059104" d="M32,34H42.653v8.878H32Z" transform="translate(-32 -34)" fill="#b4dd7f"/>
        </g>
        <g id="Grupo_1209422" data-name="Grupo 1209422" transform="translate(15.092 30.185)">
          <path id="Trazado_1059105" data-name="Trazado 1059105" d="M25.516,36a1.592,1.592,0,0,0-.577.115l-2.2.941L19,38.663l2.663,2.663,2.663,2.663,1.607-3.738.941-2.2a1.592,1.592,0,0,0,.115-.577A1.47,1.47,0,0,0,25.516,36Z" transform="translate(-19 -36)" fill="#aab2bd"/>
        </g>
        <g id="Grupo_1209423" data-name="Grupo 1209423" transform="translate(0 46.165)">
          <path id="Trazado_1059106" data-name="Trazado 1059106" d="M9.1,59.327,8.428,60A3.767,3.767,0,0,1,3.1,54.675L3.776,54Z" transform="translate(-2 -54)" fill="#aab2bd"/>
        </g>
        <g id="Grupo_1209424" data-name="Grupo 1209424" transform="translate(1.776 43.501)">
          <path id="Trazado_1059107" data-name="Trazado 1059107" d="M11.99,56.327,9.327,58.99,4,53.663,6.663,51l2.663,2.663Z" transform="translate(-4 -51)" fill="#ffeaa7"/>
        </g>
        <g id="Grupo_1209425" data-name="Grupo 1209425" transform="translate(7.102 35.511)">
          <path id="Trazado_1059108" data-name="Trazado 1059108" d="M23.317,44.663l-7.99,7.99-2.663,2.663L10,52.653,20.653,42Z" transform="translate(-10 -42)" fill="#fcd770"/>
        </g>
        <g id="Grupo_1209426" data-name="Grupo 1209426" transform="translate(4.439 32.848)">
          <path id="Trazado_1059109" data-name="Trazado 1059109" d="M20.317,41.663,9.663,52.317,7,49.653l7.99-7.99L17.653,39Z" transform="translate(-7 -39)" fill="#b4dd7f"/>
        </g>
        <g id="Grupo_1209427" data-name="Grupo 1209427" transform="translate(28.409)">
          <path id="Trazado_1059110" data-name="Trazado 1059110" d="M58.858,3.776V21.531a1.781,1.781,0,0,1-1.776,1.776H48.2l-1.776,1.776-1.412,1.412a1.256,1.256,0,0,1-2.14-.888v-2.3h-7.1A1.781,1.781,0,0,1,34,21.531V3.776A1.781,1.781,0,0,1,35.776,2H57.082A1.781,1.781,0,0,1,58.858,3.776Z" transform="translate(-34 -2)" fill="#e6e9ed"/>
        </g>
        <g id="Grupo_1209428" data-name="Grupo 1209428" transform="translate(0 22.195)">
          <path id="Trazado_1059111" data-name="Trazado 1059111" d="M9.1,27,5.551,32.327,2,27H9.1Z" transform="translate(-2 -27)" fill="#ff826e"/>
        </g>
        <g id="Grupo_1209429" data-name="Grupo 1209429" transform="translate(46.165 25.746)">
          <path id="Trazado_1059112" data-name="Trazado 1059112" d="M57.551,31,61.1,36.327H54Z" transform="translate(-54 -31)" fill="#ff826e"/>
        </g>
        <g id="Grupo_1209430" data-name="Grupo 1209430" transform="translate(33.736 49.716)">
          <circle id="Elipse_11555" data-name="Elipse 11555" cx="1.776" cy="1.776" r="1.776" fill="#fcd770"/>
        </g>
        <g id="Grupo_1209431" data-name="Grupo 1209431" transform="translate(26.633 49.716)">
          <circle id="Elipse_11556" data-name="Elipse 11556" cx="1.776" cy="1.776" r="1.776" fill="#fcd770"/>
        </g>
        <g id="Grupo_1209432" data-name="Grupo 1209432" transform="translate(19.531 49.716)">
          <circle id="Elipse_11557" data-name="Elipse 11557" cx="1.776" cy="1.776" r="1.776" fill="#fcd770"/>
        </g>
        <g id="Grupo_1209433" data-name="Grupo 1209433" transform="translate(21.307)">
          <circle id="Elipse_11558" data-name="Elipse 11558" cx="1.776" cy="1.776" r="1.776" fill="#fcd770"/>
        </g>
        <g id="Grupo_1209434" data-name="Grupo 1209434" transform="translate(14.205)">
          <circle id="Elipse_11559" data-name="Elipse 11559" cx="1.776" cy="1.776" r="1.776" fill="#fcd770"/>
        </g>
        <g id="Grupo_1209435" data-name="Grupo 1209435" transform="translate(39.062 3.551)">
          <path id="Trazado_1059113" data-name="Trazado 1059113" d="M49.551,6.888l-.763,5.336a1.022,1.022,0,0,1-2.024,0L46,6.888A.89.89,0,0,1,46.888,6h1.776A.89.89,0,0,1,49.551,6.888Z" transform="translate(-46 -6)" fill="#ff826e"/>
        </g>
        <g id="Grupo_1209436" data-name="Grupo 1209436" transform="translate(39.062 14.205)">
          <circle id="Elipse_11560" data-name="Elipse 11560" cx="1.776" cy="1.776" r="1.776" fill="#ff826e"/>
        </g>
      </g>
      <g id="Grupo_1209438" data-name="Grupo 1209438" transform="translate(0.131 1)">
        <path id="Trazado_1059114" data-name="Trazado 1059114" d="M47.663,13.878a1.921,1.921,0,0,0,1.892-1.641L50.317,6.9l.01-.126A1.777,1.777,0,0,0,48.551,5H46.776A1.777,1.777,0,0,0,45,6.776l.771,5.462a1.921,1.921,0,0,0,1.892,1.641Zm.879-7.1-.744,5.21a.141.141,0,0,1-.27,0l-.744-5.21Z" transform="translate(-5.166 -1.449)"/>
        <path id="Trazado_1059115" data-name="Trazado 1059115" d="M47.663,22.327A2.663,2.663,0,1,0,45,19.663,2.667,2.667,0,0,0,47.663,22.327Zm0-3.551a.888.888,0,1,1-.888.888A.889.889,0,0,1,47.663,18.776Z" transform="translate(-5.166 -2.795)"/>
        <path id="Trazado_1059116" data-name="Trazado 1059116" d="M61.976,37.012,56.766,29.2l-5.21,7.815h4.323V55.656H47v1.776h8.878a1.777,1.777,0,0,0,1.776-1.776V37.012ZM56.766,32.4l1.892,2.838H54.873Z" transform="translate(-5.391 -4.164)"/>
        <path id="Trazado_1059117" data-name="Trazado 1059117" d="M25.663,57a2.663,2.663,0,1,0,2.663,2.663A2.667,2.667,0,0,0,25.663,57Zm0,3.551a.888.888,0,1,1,.888-.888A.889.889,0,0,1,25.663,60.551Z" transform="translate(-2.697 -7.284)"/>
        <path id="Trazado_1059118" data-name="Trazado 1059118" d="M33.663,57a2.663,2.663,0,1,0,2.663,2.663A2.667,2.667,0,0,0,33.663,57Zm0,3.551a.888.888,0,1,1,.888-.888A.889.889,0,0,1,33.663,60.551Z" transform="translate(-3.595 -7.284)"/>
        <path id="Trazado_1059119" data-name="Trazado 1059119" d="M41.663,57a2.663,2.663,0,1,0,2.663,2.663A2.667,2.667,0,0,0,41.663,57Zm0,3.551a.888.888,0,1,1,.888-.888A.889.889,0,0,1,41.663,60.551Z" transform="translate(-4.493 -7.284)"/>
        <path id="Trazado_1059120" data-name="Trazado 1059120" d="M5.341,31.234l5.21-7.815H6.229V4.776h7.1V3h-7.1A1.777,1.777,0,0,0,4.454,4.776V23.419H.131Zm0-3.2L3.45,25.195H7.234Z" transform="translate(-0.131 -1.224)"/>
        <path id="Trazado_1059121" data-name="Trazado 1059121" d="M27.663,6.327A2.663,2.663,0,1,0,25,3.663,2.667,2.667,0,0,0,27.663,6.327Zm0-3.551a.888.888,0,1,1-.888.888A.889.889,0,0,1,27.663,2.776Z" transform="translate(-2.922 -1)"/>
        <path id="Trazado_1059122" data-name="Trazado 1059122" d="M19.663,6.327A2.663,2.663,0,1,0,17,3.663,2.667,2.667,0,0,0,19.663,6.327Zm0-3.551a.888.888,0,1,1-.888.888A.889.889,0,0,1,19.663,2.776Z" transform="translate(-2.024 -1)"/>
        <path id="Trazado_1059123" data-name="Trazado 1059123" d="M41.838,48.94a1.777,1.777,0,0,0,1.776-1.776V25.338l1.255-1.255h8.51a2.667,2.667,0,0,0,2.663-2.663V3.663A2.667,2.667,0,0,0,53.379,1H32.072a2.667,2.667,0,0,0-2.663,2.663V8.1H15.2a1.777,1.777,0,0,0-1.776,1.776V37.031L2.363,48.1A4.654,4.654,0,0,0,8.945,54.68l5.74-5.74ZM31.185,3.663a.889.889,0,0,1,.888-.888H53.379a.889.889,0,0,1,.888.888V21.419a.889.889,0,0,1-.888.888H44.134L40.69,25.75a.382.382,0,0,1-.628-.26V22.307h-7.99a.889.889,0,0,1-.888-.888ZM15.2,9.878h14.2V21.419a2.667,2.667,0,0,0,2.663,2.663h6.214V25.49a2.146,2.146,0,0,0,2.143,2.143,2.124,2.124,0,0,0,1.408-.539v20.07H16.46l6.6-6.6,2.611-6.093a2.361,2.361,0,0,0-3.1-3.1l-6.094,2.611L15.2,35.256Zm8.831,23.9-.424.991-1.335-1.335.992-.425a.6.6,0,0,1,.815.539.59.59,0,0,1-.047.231Zm-3.517.409,2.339,2.339-.85,1.983-3.472-3.472ZM16.98,35.991,18.388,37.4l-9.4,9.4L7.582,45.389ZM10.4,50.716,8.99,52.124,4.919,48.052l1.408-1.408Zm-.153-2.663,9.4-9.4,1.408,1.408-9.4,9.4ZM5.652,54.267a2.879,2.879,0,0,1-2.034-4.914l.045-.045,4.071,4.071-.045.045A2.86,2.86,0,0,1,5.652,54.267Z" transform="translate(-0.229 -1)"/>
        <path id="Trazado_1059124" data-name="Trazado 1059124" d="M19,13h5.327v1.776H19Z" transform="translate(-2.248 -2.347)"/>
        <path id="Trazado_1059125" data-name="Trazado 1059125" d="M27,13h3.551v1.776H27Z" transform="translate(-3.146 -2.347)"/>
        <path id="Trazado_1059126" data-name="Trazado 1059126" d="M19,17H29.653v1.776H19Z" transform="translate(-2.248 -2.795)"/>
        <path id="Trazado_1059127" data-name="Trazado 1059127" d="M19,21h5.327v1.776H19Z" transform="translate(-2.248 -3.244)"/>
        <path id="Trazado_1059128" data-name="Trazado 1059128" d="M27,21h3.551v1.776H27Z" transform="translate(-3.146 -3.244)"/>
        <path id="Trazado_1059129" data-name="Trazado 1059129" d="M19,25h3.551v1.776H19Z" transform="translate(-2.248 -3.693)"/>
        <path id="Trazado_1059130" data-name="Trazado 1059130" d="M25,25h5.327v1.776H25Z" transform="translate(-2.922 -3.693)"/>
        <path id="Trazado_1059131" data-name="Trazado 1059131" d="M31,43.653H43.429V33H31Zm1.776-8.878h8.878v7.1H32.776Z" transform="translate(-3.595 -4.591)"/>
        <path id="Trazado_1059132" data-name="Trazado 1059132" d="M31.74,47a2.129,2.129,0,0,0-1.515.628l-.537.537a2.215,2.215,0,0,0-4.051.349l-.586,1.757,1.684.562.586-1.757a.456.456,0,0,1,.808-.057L29.2,51.164l2.279-2.279a.381.381,0,0,1,.628.258v1.408H42.761V48.776h-8.91A2.145,2.145,0,0,0,31.74,47Z" transform="translate(-2.927 -6.162)"/>
        <path id="Trazado_1059133" data-name="Trazado 1059133" d="M19,29H29.653v1.776H19Z" transform="translate(-2.248 -4.142)"/>
      </g>
    </g>
  </g>
</svg>
