<svg xmlns="http://www.w3.org/2000/svg" xmlns:xlink="http://www.w3.org/1999/xlink" width="103" height="103" viewBox="0 0 103 103">
  <defs>
    <filter id="Trazado_982547" x="0" y="0" width="103" height="103" filterUnits="userSpaceOnUse">
      <feOffset dy="3" input="SourceAlpha"/>
      <feGaussianBlur stdDeviation="3" result="blur"/>
      <feFlood flood-opacity="0.161"/>
      <feComposite operator="in" in2="blur"/>
      <feComposite in="SourceGraphic"/>
    </filter>
  </defs>
  <g id="Grupo_1209407" data-name="Grupo 1209407" transform="translate(-191 -4803.497)">
    <g id="Grupo_1207682" data-name="Grupo 1207682" transform="translate(0 2033.284)">
      <g id="Grupo_1207604" data-name="Grupo 1207604" transform="translate(0 -893.287)">
        <g id="Grupo_1207313" data-name="Grupo 1207313" transform="translate(0 2919.5)">
          <g id="Grupo_1202212" data-name="Grupo 1202212" transform="translate(-80 -126.414)">
            <g id="Grupo_1174813" data-name="Grupo 1174813" transform="translate(280 876.414)">
              <g id="Grupo_1201680" data-name="Grupo 1201680">
                <g id="Grupo_1201330" data-name="Grupo 1201330">
                  <g id="Grupo_1172010" data-name="Grupo 1172010">
                    <g id="Grupo_1171046" data-name="Grupo 1171046">
                      <g id="Grupo_1148525" data-name="Grupo 1148525">
                        <g transform="matrix(1, 0, 0, 1, -9, -6)" filter="url(#Trazado_982547)">
                          <g id="Trazado_982547-2" data-name="Trazado 982547" transform="translate(9 6)" fill="#f2f7e5">
                            <path d="M 42.5 83.5 C 36.96437835693359 83.5 31.59512901306152 82.41617584228516 26.54141235351562 80.27863311767578 C 21.65934181213379 78.21369171142578 17.27447128295898 75.25723266601562 13.50862312316895 71.49137878417969 C 9.742764472961426 67.72553253173828 6.786305904388428 63.34066009521484 4.721364498138428 58.45858764648438 C 2.583823442459106 53.40486907958984 1.5 48.03562164306641 1.5 42.5 C 1.5 36.96437835693359 2.583823442459106 31.59512901306152 4.721364498138428 26.54141235351562 C 6.786305904388428 21.65934181213379 9.742764472961426 17.27448272705078 13.50862312316895 13.50862312316895 C 17.27447128295898 9.742776870727539 21.65934181213379 6.786305904388428 26.54141235351562 4.721364498138428 C 31.59512901306152 2.583823442459106 36.96437835693359 1.5 42.5 1.5 C 48.03562164306641 1.5 53.40486907958984 2.583823442459106 58.45858764648438 4.721364498138428 C 63.34066009521484 6.786305904388428 67.72553253173828 9.742776870727539 71.49137878417969 13.50862312316895 C 75.25723266601562 17.27448272705078 78.21369171142578 21.65934181213379 80.27863311767578 26.54141235351562 C 82.41617584228516 31.59512901306152 83.5 36.96437835693359 83.5 42.5 C 83.5 48.03562164306641 82.41617584228516 53.40486907958984 80.27863311767578 58.45858764648438 C 78.21369171142578 63.34066009521484 75.25723266601562 67.72553253173828 71.49137878417969 71.49137878417969 C 67.72553253173828 75.25723266601562 63.34066009521484 78.21369171142578 58.45858764648438 80.27863311767578 C 53.40486907958984 82.41617584228516 48.03562164306641 83.5 42.5 83.5 Z" stroke="none"/>
                            <path d="M 42.5 3 C 37.16621398925781 3 31.99356079101562 4.043960571289062 27.125732421875 6.102882385253906 C 22.42246627807617 8.092185974121094 18.19785308837891 10.94070434570312 14.56928253173828 14.56928253173828 C 10.94070434570312 18.19785308837891 8.092185974121094 22.42246627807617 6.102882385253906 27.125732421875 C 4.043960571289062 31.99356079101562 3 37.16621398925781 3 42.5 C 3 47.83378601074219 4.043960571289062 53.00643920898438 6.102882385253906 57.874267578125 C 8.092185974121094 62.57753372192383 10.94070434570312 66.80214691162109 14.56928253173828 70.43071746826172 C 18.19785308837891 74.05929565429688 22.42246627807617 76.90781402587891 27.125732421875 78.89711761474609 C 31.99356079101562 80.95603942871094 37.16621398925781 82 42.5 82 C 47.83378601074219 82 53.00643920898438 80.95603942871094 57.874267578125 78.89711761474609 C 62.57753372192383 76.90781402587891 66.80214691162109 74.05929565429688 70.43071746826172 70.43071746826172 C 74.05929565429688 66.80214691162109 76.90781402587891 62.57753372192383 78.89711761474609 57.874267578125 C 80.95603942871094 53.00643920898438 82 47.83378601074219 82 42.5 C 82 37.16621398925781 80.95603942871094 31.99356079101562 78.89711761474609 27.125732421875 C 76.90781402587891 22.42246627807617 74.05929565429688 18.19785308837891 70.43071746826172 14.56928253173828 C 66.80214691162109 10.94070434570312 62.57753372192383 8.092185974121094 57.874267578125 6.102882385253906 C 53.00643920898438 4.043960571289062 47.83378601074219 3 42.5 3 M 42.5 0 C 65.97210693359375 0 85 19.02789306640625 85 42.5 C 85 65.97210693359375 65.97210693359375 85 42.5 85 C 19.02789306640625 85 0 65.97210693359375 0 42.5 C 0 19.02789306640625 19.02789306640625 0 42.5 0 Z" stroke="none" fill="#1d7083"/>
                          </g>
                        </g>
                      </g>
                    </g>
                  </g>
                </g>
              </g>
            </g>
          </g>
        </g>
      </g>
    </g>
    <g id="Layer_x0020_1" transform="translate(213.232 4820.48)">
      <path id="Trazado_1059088" data-name="Trazado 1059088" d="M44.926,53.066c-1.227,0-.988-1.466-.988-2.454a.989.989,0,0,1,1.977,0C45.914,51.6,46.153,53.066,44.926,53.066Zm0,5.112A13.411,13.411,0,1,1,58.355,44.75,13.426,13.426,0,0,1,44.926,58.179Zm0-24.846A11.435,11.435,0,1,0,56.378,44.75,11.418,11.418,0,0,0,44.926,33.333ZM15.513,58.179H10.741a.989.989,0,0,1-.988-.988V54.055a10.057,10.057,0,0,1-3-1.7L4.061,53.884A.993.993,0,0,1,2.7,53.543L.312,49.385a1,1,0,0,1,.375-1.363L3.38,46.488a9.734,9.734,0,0,1,0-3.442L.687,41.478a1,1,0,0,1-.375-1.363L2.7,35.991a1,1,0,0,1,1.363-.375l2.693,1.568a10.154,10.154,0,0,1,3-1.738v-3.1a.989.989,0,0,1,.988-.988h4.772a.989.989,0,0,1,.988.988v3.1a10.154,10.154,0,0,1,3,1.738l2.693-1.568a.964.964,0,0,1,1.329.375l2.42,4.124a1,1,0,0,1-.375,1.363l-2.693,1.568a9.734,9.734,0,0,1,0,3.442l2.693,1.534a1,1,0,0,1,.375,1.363l-2.42,4.158a.953.953,0,0,1-1.329.341L19.5,52.351a10.057,10.057,0,0,1-3,1.7V57.19A.989.989,0,0,1,15.513,58.179ZM11.73,56.2h2.795V53.339c0-1.4,1.738-.579,4.158-2.931a.929.929,0,0,1,1.159-.136L22.329,51.7l1.4-2.454c-4.226-2.454-2.693-1.261-2.693-4.5s-1.534-2.045,2.693-4.5l-1.4-2.42-2.488,1.4c-1.193.716-1.4-1.227-4.6-2.113a.992.992,0,0,1-.716-.954V33.333H11.73v2.829c0,1.4-1.772.579-4.158,2.931a.972.972,0,0,1-1.193.136l-2.454-1.4-1.4,2.42c4.226,2.454,2.658,1.261,2.658,4.5s1.568,2.045-2.658,4.5l1.4,2.454,2.454-1.431c1.227-.716,1.431,1.227,4.6,2.113a1.013,1.013,0,0,1,.75.954Zm1.4-6.407a5.044,5.044,0,1,1,5.044-5.044A5.033,5.033,0,0,1,13.127,49.794Zm0-8.112a3.067,3.067,0,1,0,3.067,3.067A3.076,3.076,0,0,0,13.127,41.683ZM25.4,27.266a1,1,0,0,1-.545-1.84l9.782-5.93a.994.994,0,0,1,1.022,1.7l-9.748,5.9A1.014,1.014,0,0,1,25.4,27.266ZM23.318,12.338a1,1,0,0,1-.511-1.84l8.316-5.044a.994.994,0,0,1,1.022,1.7L23.829,12.2A.962.962,0,0,1,23.318,12.338Zm-.136,10.838a1.079,1.079,0,0,1-.545-.136l-4.5-3.033a.931.931,0,0,1-.409-.818V13.8a.981.981,0,0,1,1.534-.818l3.954,2.658L34.667,8.691a1.062,1.062,0,0,1,1.057,0l4.635,2.931a1.019,1.019,0,0,1,.443.852v5.351a.985.985,0,0,1-1.5.852l-4.124-2.59L23.693,23.04A.821.821,0,0,1,23.181,23.176Zm-3.51-4.533,3.545,2.386,11.452-6.953a.986.986,0,0,1,1.057,0l3.1,1.977V12.985L35.178,10.7,23.693,17.655a.986.986,0,0,1-1.057,0l-2.931-2.011v3Zm9.577,13.906A16.274,16.274,0,1,1,45.54,16.291,16.277,16.277,0,0,1,29.248,32.549Zm0-30.572A14.315,14.315,0,1,0,43.563,16.291,14.306,14.306,0,0,0,29.248,1.977ZM44.926,48.295a.989.989,0,0,1-.988-.988V43.864a.989.989,0,0,1,.988-.988,2.232,2.232,0,1,0-2.249-2.249.988.988,0,1,1-1.977,0,4.226,4.226,0,1,1,5.215,4.124v2.556A.989.989,0,0,1,44.926,48.295Z" transform="translate(0)" fill-rule="evenodd"/>
      <path id="Trazado_1059089" data-name="Trazado 1059089" d="M87.507,989.418c0-3.238-1.534-2.045,2.693-4.5l-1.4-2.42-2.488,1.4c-1.193.716-1.4-1.227-4.6-2.113a.992.992,0,0,1-.716-.954V978H78.2v2.829c0,1.4-1.772.579-4.158,2.931a.972.972,0,0,1-1.193.136L70.4,982.5l-1.4,2.42c4.226,2.454,2.658,1.261,2.658,4.5s1.568,2.045-2.658,4.5l1.4,2.454,2.454-1.431c1.227-.716,1.431,1.227,4.6,2.113a1.013,1.013,0,0,1,.75.954v2.863H81v-2.863c0-1.4,1.738-.579,4.158-2.931a.929.929,0,0,1,1.159-.136L88.8,996.37l1.4-2.454C85.973,991.463,87.507,992.655,87.507,989.418ZM79.6,984.373a5.044,5.044,0,1,1-5.044,5.044A5.077,5.077,0,0,1,79.6,984.373Z" transform="translate(-66.473 -944.667)" fill="#333" fill-rule="evenodd"/>
      <path id="Trazado_1059090" data-name="Trazado 1059090" d="M575.545,324.327,587,317.374a.986.986,0,0,1,1.057,0l3.1,1.977v-3.067L587.508,314l-11.486,6.953a.986.986,0,0,1-1.057,0l-2.931-2.011-.034,3Z" transform="translate(-552.329 -303.298)" fill="#ffa721" fill-rule="evenodd"/>
      <path id="Trazado_1059091" data-name="Trazado 1059091" d="M442.248,71.667,453.7,64.714a1.062,1.062,0,0,1,1.057,0l4.635,2.931a1.019,1.019,0,0,1,.443.852v5.351a.985.985,0,0,1-1.5.852l-4.124-2.59-11.486,6.953a.822.822,0,0,1-.511.136,1.079,1.079,0,0,1-.545-.136l-4.5-3.033a.93.93,0,0,1-.409-.818V69.827a.981.981,0,0,1,1.534-.818Zm6.033,14.962A14.315,14.315,0,1,0,434,72.315,14.335,14.335,0,0,0,448.281,86.629Zm-4.4-5.181,9.782-5.93a.994.994,0,0,1,1.022,1.7l-9.748,5.9a1.014,1.014,0,0,1-.511.17A1,1,0,0,1,443.884,81.449Zm6.271-19.972a.994.994,0,0,1,1.022,1.7l-8.316,5.044a.962.962,0,0,1-.511.136,1,1,0,0,1-.511-1.84Z" transform="translate(-419.032 -56.023)" fill="#1aa1ff" fill-rule="evenodd"/>
      <path id="Trazado_1059092" data-name="Trazado 1059092" d="M989.418,978a11.435,11.435,0,1,0,11.452,11.418A11.418,11.418,0,0,0,989.418,978Zm0,19.734c-1.227,0-.988-1.466-.988-2.454a.989.989,0,0,1,1.977,0C990.406,996.268,990.645,997.734,989.418,997.734Zm0-4.772a.989.989,0,0,1-.988-.988v-3.442a.989.989,0,0,1,.988-.988,2.232,2.232,0,1,0-2.249-2.249.988.988,0,1,1-1.977,0,4.226,4.226,0,1,1,5.215,4.124v2.556A.989.989,0,0,1,989.418,992.962Z" transform="translate(-944.492 -944.667)" fill="#ff3131" fill-rule="evenodd"/>
    </g>
  </g>
</svg>
